<?xml version="1.0" encoding="UTF-8"?>
<svg width="425px" height="86px" viewBox="0 0 425 86" version="1.1" xmlns="http://www.w3.org/2000/svg" xmlns:xlink="http://www.w3.org/1999/xlink">
    <title>Group 15</title>
    <g id="Page-1" stroke="none" stroke-width="1" fill="none" fill-rule="evenodd">
        <g id="Group-15" transform="translate(0.000000, 0.293355)">
            <g id="Group-12-Copy-2" transform="translate(119.000000, 0.000000)" fill-rule="nonzero">
                <path d="M21.3789913,66.69093 L35.5675676,0 L35.5675676,0 C25.2489101,1.89550662e-15 16.3358254,7.21629965 14.1885762,17.30907 L-4.97379915e-13,84 L-4.97379915e-13,84 C10.3186575,84 19.2317422,76.7837004 21.3789913,66.69093 Z" id="Path" fill="#FFFFFF"></path>
                <path d="M57.3752639,65.0138298 L65.4539155,27.6112266 L65.4539155,27.6112266 L65.7865558,27.6112266 L91.4553015,81 C99.60161,81 106.638256,75.3029213 108.333453,67.3349448 L122.446292,1 L122.446292,1 L106.091476,1 L94.5599446,54.3887734 L94.2273042,54.3887734 L68.5585586,1 C60.41225,1 53.3756042,6.69707867 51.6804075,14.6650552 L37.5675676,81 L37.5675676,81 C47.1106404,81 55.3605005,74.3417967 57.3752639,65.0138298 Z" id="Path" fill="#FFFFFF"></path>
                <path d="M194.559915,0.995117188 L140.999306,0.995117188 L123.446292,83.5 L126.534123,83.5 L126.894081,83.4964104 C135.156407,83.3315233 142.246599,77.5025366 143.982879,69.3908548 L147.837123,51.38 L167.934493,51.3808594 C175.30642,51.3808594 181.699883,46.2950978 183.363538,39.1245052 L184.105284,35.7460938 L151.078123,35.746 L155.235123,16.952 L178.092363,16.9521484 C185.643855,16.9521484 192.182707,11.7179102 193.841765,4.3622926 L194.559915,0.995117188 Z" id="Path" fill="#FCC838"></path>
                <path d="M211.822561,69.5947569 L226.417217,0.995117188 L223.329387,0.995117188 C215.039892,0.995117188 207.879565,6.79233223 206.154572,14.9003603 L191.559915,83.5 L194.647746,83.5 C202.93724,83.5 210.097568,77.702785 211.822561,69.5947569 Z" id="Path" fill="#FCC838"></path>
                <path d="M305.508147,0.995117188 L239.624268,0.995117188 L236.417217,16.9521484 L260.65466,16.952 L246.422357,83.5 L249.513605,83.5 L249.873327,83.4963603 C258.010319,83.3316018 264.991967,77.5895397 266.700754,69.6001532 L277.96066,16.952 L289.040595,16.9521484 C296.592087,16.9521484 303.130939,11.7179102 304.789997,4.3622926 L305.508147,0.995117188 Z" id="Path" fill="#FCC838"></path>
            </g>
            <g id="Group-8" transform="translate(47.500000, 43.000000) scale(-1, 1) translate(-47.500000, -43.000000) translate(0.000000, 2.000000)">
                <path d="M47.7678571,69.7068512 C52.8366095,69.7068512 60.2678571,71.7068512 60.3167467,71.5910115 L56.2780193,74.998715 L54.211552,76.7513243 C53.8641838,77.0466986 53.5152805,77.3438032 53.164757,77.6427791 L51.041494,79.4602185 L48.8752661,81.3293371 C48.3569556,81.778515 47.7130664,82.0031959 47.0689935,82.0031959 C46.4249205,82.0031959 45.7810314,81.778515 45.2627208,81.3293371 C44.5273186,80.691982 43.7998806,80.064521 43.0797091,79.4458008 L40.9402961,77.6147082 L38.8402956,75.8291379 L35.7550353,73.2209959 C35.4161085,72.9351622 35.0783879,72.6505043 34.7417861,72.366878 C34.7678571,71.7068512 42.6991048,69.7068512 47.7678571,69.7068512 Z" id="Path" fill="#FCC838" fill-rule="nonzero"></path>
                <path d="M47.2021228,30.32249 C63.0531284,30.32249 77.7556332,34.6005554 89.8678563,41.90244 C88.0313346,45.0652603 85.6373192,48.1529216 82.7591387,51.2878216 C72.7058978,45.2627799 60.224222,40.6954174 46.7021228,40.6954174 C33.3928615,40.6954174 21.0915287,45.1513631 11.1214687,51.0047286 C8.39300028,48.0066152 6.11109162,45.0477332 4.33842568,42.0216671 C16.4890456,34.6471213 31.2650832,30.32249 47.2021228,30.32249 Z" id="Path" fill="#FFE59B" fill-rule="nonzero" opacity="0.507593936"></path>
                <path d="M69.1325841,1.13686838e-13 C83.5524277,1.13686838e-13 94.1379869,12.0018579 94.1379869,26.7085281 C94.1379869,28.5480106 93.970308,30.3223493 93.6440987,32.0469926 C82.4213607,24.3462151 65.9833959,19.2068512 47.2021228,19.2068512 C28.2902577,19.2068512 11.7544017,24.4179347 0.525460686,32.2079765 C0.17828082,30.4327559 0,28.6052721 0,26.7085281 C0,11.9979968 10.5905235,1.13686838e-13 25.0054028,1.13686838e-13 C32.7892537,1.13686838e-13 39.5541345,3.7048446 44.5682693,10.7142635 C45.5592923,12.0993054 46.3872285,13.4825087 47.0689935,14.7678967 C47.7507584,13.4825087 48.5786947,12.0993054 49.5697176,10.7142635 C54.5838525,3.7048446 61.3487332,1.13686838e-13 69.1325841,1.13686838e-13 Z" id="Path" fill="#FFF5DB" fill-rule="nonzero" opacity="0.271670387"></path>
                <path d="M27.8189935,66.2068512 L18.8189935,58.2068512 C28.4515692,52.8735179 37.7678571,50.2068512 46.7678571,50.2068512 C55.7678571,50.2068512 65.2849026,52.8735179 75.3189935,58.2068512 L66.3189935,66.2068512 C59.6789349,63.2068512 53.1789349,61.7068512 46.8189935,61.7068512 C40.459052,61.7068512 34.1257186,63.2068512 27.8189935,66.2068512 Z" id="Path-42" fill="#FFD767" opacity="0.693777902"></path>
            </g>
        </g>
    </g>
</svg>