<?xml version="1.0" encoding="UTF-8"?>
<svg width="306px" height="84px" viewBox="0 0 306 84" version="1.1" xmlns="http://www.w3.org/2000/svg" xmlns:xlink="http://www.w3.org/1999/xlink">
    <title>Group 12 Copy 2</title>
    <g id="Page-1" stroke="none" stroke-width="1" fill="none" fill-rule="evenodd">
        <g id="Group-12-Copy-2" fill-rule="nonzero">
            <path d="M21.3789913,66.69093 L35.5675676,0 L35.5675676,0 C25.2489101,1.89550662e-15 16.3358254,7.21629965 14.1885762,17.30907 L-4.97379915e-13,84 L-4.97379915e-13,84 C10.3186575,84 19.2317422,76.7837004 21.3789913,66.69093 Z" id="Path" fill="#FFFFFF"></path>
            <path d="M57.3752639,65.0138298 L65.4539155,27.6112266 L65.4539155,27.6112266 L65.7865558,27.6112266 L91.4553015,81 C99.60161,81 106.638256,75.3029213 108.333453,67.3349448 L122.446292,1 L122.446292,1 L106.091476,1 L94.5599446,54.3887734 L94.2273042,54.3887734 L68.5585586,1 C60.41225,1 53.3756042,6.69707867 51.6804075,14.6650552 L37.5675676,81 L37.5675676,81 C47.1106404,81 55.3605005,74.3417967 57.3752639,65.0138298 Z" id="Path" fill="#FFFFFF"></path>
            <path d="M194.559915,0.995117188 L140.999306,0.995117188 L123.446292,83.5 L126.534123,83.5 L126.894081,83.4964104 C135.156407,83.3315233 142.246599,77.5025366 143.982879,69.3908548 L147.837123,51.38 L167.934493,51.3808594 C175.30642,51.3808594 181.699883,46.2950978 183.363538,39.1245052 L184.105284,35.7460938 L151.078123,35.746 L155.235123,16.952 L178.092363,16.9521484 C185.643855,16.9521484 192.182707,11.7179102 193.841765,4.3622926 L194.559915,0.995117188 Z" id="Path" fill="#FCC838"></path>
            <path d="M211.822561,69.5947569 L226.417217,0.995117188 L223.329387,0.995117188 C215.039892,0.995117188 207.879565,6.79233223 206.154572,14.9003603 L191.559915,83.5 L194.647746,83.5 C202.93724,83.5 210.097568,77.702785 211.822561,69.5947569 Z" id="Path" fill="#FCC838"></path>
            <path d="M305.508147,0.995117188 L239.624268,0.995117188 L236.417217,16.9521484 L260.65466,16.952 L246.422357,83.5 L249.513605,83.5 L249.873327,83.4963603 C258.010319,83.3316018 264.991967,77.5895397 266.700754,69.6001532 L277.96066,16.952 L289.040595,16.9521484 C296.592087,16.9521484 303.130939,11.7179102 304.789997,4.3622926 L305.508147,0.995117188 Z" id="Path" fill="#FCC838"></path>
        </g>
    </g>
</svg>