<?xml version="1.0" encoding="UTF-8"?>
<svg width="282px" height="79px" viewBox="0 0 282 79" version="1.1" xmlns="http://www.w3.org/2000/svg" xmlns:xlink="http://www.w3.org/1999/xlink">
    <title>Group 10</title>
    <g id="Page-1" stroke="none" stroke-width="1" fill="none" fill-rule="evenodd">
        <g id="Group-9" transform="translate(-512.000000, -178.000000)" fill-rule="nonzero">
            <g id="Group-10" transform="translate(512.646143, 178.501751)">
                <path d="M17.002041,74.3372582 L31.7892891,4.83237539 C32.2489973,2.67159695 30.8700075,0.547272775 28.709229,0.087564542 C28.4355961,0.0293488015 28.1566108,1.47649203e-15 27.8768536,0 L19.7277773,0 C17.8394243,-5.41293611e-16 16.2082965,1.32060985 15.8153418,3.16762461 L1.02809372,72.6725074 C0.568385491,74.8332859 1.94737536,76.95761 4.10815379,77.4173183 C4.38178674,77.475534 4.66077204,77.5048828 4.94052918,77.5048828 L13.0896055,77.5048828 C14.9779585,77.5048828 16.6090863,76.184273 17.002041,74.3372582 Z" id="Path" fill="#FFFFFF"></path>
                <path d="M43.8866896,75.1382522 L54.5473921,25.78125 L54.5473921,25.78125 L54.8696577,25.78125 L78.9204451,75.80481 C79.4200811,76.8440098 80.4711104,77.5048828 81.6241813,77.5048828 L90.8440884,77.5048828 C92.2603531,77.5048828 93.483699,76.5144254 93.778415,75.1291644 L108.991166,3.62428154 C109.335947,2.00369771 108.301704,0.410454581 106.68112,0.0656734065 C106.475896,0.0220116012 106.266657,8.93235555e-16 106.056839,0 L96.3387151,0 C94.9259359,2.59523324e-16 93.7046071,0.98569623 93.4063367,2.36663062 L82.7456343,51.7236328 L82.7456343,51.7236328 L82.4233686,51.7236328 L58.3725812,1.70007284 C57.8729452,0.660873029 56.8219159,4.09312217e-15 55.668845,0 L46.4489379,0 C45.0326732,2.60163607e-16 43.8093273,0.99045739 43.5146113,2.37571846 L28.3018608,73.8806013 C27.9570796,75.5011851 28.991322,77.0944282 30.6119058,77.4392094 C30.8171306,77.4828712 31.0263695,77.5048828 31.2361874,77.5048828 L40.9543112,77.5048828 C42.3670904,77.5048828 43.5884193,76.5191866 43.8866896,75.1382522 Z" id="Path" fill="#FFFFFF"></path>
                <path d="M172.642612,0 C172.853901,3.51390042e-15 173.064599,0.0223214575 173.271199,0.0665927578 C174.891275,0.413751919 175.923178,2.00851118 175.576019,3.62858727 L175.576019,3.62858727 L172.994546,15.6754623 C172.698143,17.0586746 171.475752,18.046875 170.061138,18.046875 L170.061138,18.046875 L141.81744,18.046875 L138.648495,32.9785156 L162.642586,32.9785156 C162.856459,32.9785156 163.069718,33.0013862 163.278727,33.0467371 C164.897904,33.3980679 165.925696,34.9954797 165.574365,36.6146562 L165.574365,36.6146562 L163.170197,47.6947344 C162.870847,49.0743474 161.650135,50.0585938 160.238419,50.0585938 L160.238419,50.0585938 L134.996151,50.0585938 L129.69831,75.1252299 C129.40514,76.5123611 128.180923,77.5048828 126.76315,77.5048828 L126.76315,77.5048828 L109.160533,77.5048828 C108.950715,77.5048828 108.741476,77.4828712 108.536251,77.4392094 C106.915667,77.0944282 105.881425,75.5011851 106.226206,73.8806013 L106.226206,73.8806013 L121.438957,2.37571846 C121.733672,0.99045739 122.957018,-1.83925603e-16 124.373283,0 L124.373283,0 Z M202.682873,0 C202.892691,3.95825997e-15 203.10193,0.0220116012 203.307155,0.0656734065 C204.927738,0.410454581 205.961981,2.00369771 205.6172,3.62428154 L205.6172,3.62428154 L190.404449,75.1291644 C190.109733,76.5144254 188.886387,77.5048828 187.470123,77.5048828 L187.470123,77.5048828 L170.830972,77.5048828 C170.621154,77.5048828 170.411915,77.4828712 170.20669,77.4392094 C168.586106,77.0944282 167.551864,75.5011851 167.896645,73.8806013 L167.896645,73.8806013 L183.109395,2.37571846 C183.404111,0.99045739 184.627457,7.04252817e-16 186.043722,0 L186.043722,0 Z M277.358489,0 C277.569779,3.06981121e-15 277.780477,0.0223214575 277.987077,0.0665927578 C279.607153,0.413751919 280.639056,2.00851118 280.291897,3.62858727 L280.291897,3.62858727 L277.710423,15.6754623 C277.414021,17.0586746 276.19163,18.046875 274.777016,18.046875 L274.777016,18.046875 L258.094174,18.046875 C256.677408,18.046875 255.453772,19.0380183 255.15957,20.4239011 L255.15957,20.4239011 L243.546715,75.1278567 C243.252513,76.5137395 242.028877,77.5048828 240.612111,77.5048828 L240.612111,77.5048828 L223.972379,77.5048828 C223.763008,77.5048828 223.554212,77.4829649 223.349405,77.4394873 C221.728668,77.0954284 220.693716,75.5026463 221.037774,73.881909 L221.037774,73.881909 L232.121635,21.6698489 C232.165113,21.4650418 232.187031,21.256246 232.187031,21.046875 C232.187031,19.3900208 230.843885,18.046875 229.187031,18.046875 L229.187031,18.046875 L215.063616,18.046875 C214.852326,18.046875 214.641628,18.0245535 214.435029,17.9802822 C212.814952,17.6331231 211.783049,16.0383638 212.130209,14.4182877 L212.130209,14.4182877 L214.711682,2.37141273 C215.008084,0.988200385 216.230476,1.14803868e-15 217.645089,0 L217.645089,0 Z" id="Combined-Shape" fill="#F47E09"></path>
            </g>
        </g>
    </g>
</svg>